:FULLY-SPECIFIED
:FORCE-ALL-JOINTS-BE-3DOF
:DEGREES
238
root 5.52563 15.6826 -25.9017 10.0886 23.0817 -4.86833
lfemur 0 0 0
ltibia 0 0 0
lfoot 0 0 0
ltoes 1.09318 -0 0
rfemur 0 0 0
rtibia 0 0 0
rfoot -18.6197 0.0531822 -1.78931
rtoes 0 0 0
lowerback 1.52526 -2.09141 1.35485
upperback 0 0 0
thorax 0 0 0
lowerneck -11.3909 -2.61013 0.110777
upperneck 0 0 0
head 2.41729 -1.72701 -0.0575192
lclavicle 0 0 0
lhumerus -53.1151 -37.4321 120.181
lradius 60.8641 -0 0
lwrist 19.0972 0 0
lhand 0 0 0
lfingers 0 0 0
lthumb 0 0 0
rclavicle 0 0 0
rhumerus -36.1297 -2.54594 -68.9789
rradius 0 0 0
rwrist -11.0365 0 0
rhand 29.7435 -21.5872 -3.07673
rfingers 0 0 0
rthumb 0 0 0
239
root 5.63121 15.7219 -25.8951 9.96803 25.2089 -4.54481
lfemur 0 0 0
ltibia 0 0 0
lfoot 0 0 0
ltoes 5.5448 -0 0
rfemur 0 0 0
rtibia 0 0 0
rfoot -15.5097 -1.24421 -2.0158
rtoes 0 0 0
lowerback 1.5328 -2.12916 1.14936
upperback 0 0 0
thorax 0 0 0
lowerneck -11.2614 -3.05691 -0.0628923
upperneck 0 0 0
head 2.43522 -2.01261 -0.0506648
lclavicle 0 0 0
lhumerus -52.9469 -37.1276 120.085
lradius 60.9092 -0 0
lwrist 19.1748 0 0
lhand 0 0 0
lfingers 0 0 0
lthumb 0 0 0
rclavicle 0 0 0
rhumerus -36.6727 -2.8905 -68.7375
rradius 0 0 0
rwrist -6.36373 0 0
rhand 25.7166 -19.857 -3.47077
rfingers 0 0 0
rthumb 0 0 0
240
root 5.74093 15.7619 -25.8872 9.85494 27.4142 -4.20849
lfemur 0 0 0
ltibia 0 0 0
lfoot 0 0 0
ltoes 10.1587 -0 0
rfemur 0 0 0
rtibia 0 0 0
rfoot -12.2813 -2.59999 -2.17589
rtoes 0 0 0
lowerback 1.54075 -2.16826 0.936367
upperback 0 0 0
thorax 0 0 0
lowerneck -11.1256 -3.51956 -0.244044
upperneck 0 0 0
head 2.45378 -2.30862 -0.0436534
lclavicle 0 0 0
lhumerus -52.774 -36.8117 119.987
lradius 60.9559 -0 0
lwrist 19.2553 0 0
lhand 0 0 0
lfingers 0 0 0
lthumb 0 0 0
rclavicle 0 0 0
rhumerus -37.2371 -3.24518 -68.4837
rradius 0 0 0
rwrist -1.52059 0 0
rhand 21.5307 -18.0385 -3.74992
rfingers 0 0 0
rthumb 0 0 0
241
root 5.85392 15.8022 -25.8781 9.75246 29.6645 -3.86324
lfemur 0 0 0
ltibia 0 0 0
lfoot 0 0 0
ltoes 14.8654 -0 0
rfemur 0 0 0
rtibia 0 0 0
rfoot -8.98482 -3.99017 -2.26026
rtoes 0 0 0
lowerback 1.54901 -2.20811 0.719081
upperback 0 0 0
thorax 0 0 0
lowerneck -10.9855 -3.99106 -0.430067
upperneck 0 0 0
head 2.47268 -2.61059 -0.0365985
lclavicle 0 0 0
lhumerus -52.599 -36.4892 119.889
lradius 61.0035 -0 0
lwrist 19.3374 0 0
lhand 0 0 0
lfingers 0 0 0
lthumb 0 0 0
rclavicle 0 0 0
rhumerus -37.8148 -3.6044 -68.2211
rradius 0 0 0
rwrist 3.41989 0 0
rhand 17.2527 -16.167 -3.89727
rfingers 0 0 0
rthumb 0 0 0
242
root 5.96932 15.8424 -25.8678 9.66311 31.9263 -3.51282
lfemur 0 0 0
ltibia 0 0 0
lfoot 0 0 0
ltoes 19.5952 -0 0
rfemur 0 0 0
rtibia 0 0 0
rfoot -5.6709 -5.38982 -2.26443
rtoes 0 0 0
lowerback 1.55746 -2.24813 0.500713
upperback 0 0 0
thorax 0 0 0
lowerneck -10.8431 -4.46443 -0.618285
upperneck 0 0 0
head 2.49164 -2.91405 -0.0296074
lclavicle 0 0 0
lhumerus -52.4246 -36.1649 119.793
lradius 61.0514 -0 0
lwrist 19.4199 0 0
lhand 0 0 0
lfingers 0 0 0
lthumb 0 0 0
rclavicle 0 0 0
rhumerus -38.3972 -3.9627 -67.9534
rradius 0 0 0
rwrist 8.38472 0 0
rhand 12.9507 -14.2802 -3.90455
rfingers 0 0 0
rthumb 0 0 0
243
root 6.08628 15.8822 -25.8564 9.58883 34.1664 -3.16106
lfemur 0 0 0
ltibia 0 0 0
lfoot 0 0 0
ltoes 24.2787 -0 0
rfemur 0 0 0
rtibia 0 0 0
rfoot -2.39041 -6.77365 -2.18889
rtoes 0 0 0
lowerback 1.56598 -2.28772 0.284474
upperback 0 0 0
thorax 0 0 0
lowerneck -10.7004 -4.93269 -0.805946
upperneck 0 0 0
head 2.51038 -3.21453 -0.022782
lclavicle 0 0 0
lhumerus -52.2533 -35.8435 119.698
lradius 61.0988 -0 0
lwrist 19.5016 0 0
lhand 0 0 0
lfingers 0 0 0
lthumb 0 0 0
rclavicle 0 0 0
rhumerus -38.9758 -4.3148 -67.6847
rradius 0 0 0
rwrist 13.3009 0 0
rhand 8.69322 -12.4168 -3.77262
rfingers 0 0 0
rthumb 0 0 0
244
root 6.20392 15.9213 -25.8439 9.53082 36.3513 -2.81198
lfemur 0 0 0
ltibia 0 0 0
lfoot 0 0 0
ltoes 28.8462 -0 0
rfemur 0 0 0
rtibia 0 0 0
rfoot 0.805986 -8.11682 -2.03915
rtoes 0 0 0
lowerback 1.57444 -2.3263 0.0735765
upperback 0 0 0
thorax 0 0 0
lowerneck -10.5597 -5.3889 -0.990224
upperneck 0 0 0
head 2.52862 -3.50758 -0.0162183
lclavicle 0 0 0
lhumerus -52.0875 -35.5299 119.608
lradius 61.145 -0 0
lwrist 19.5813 0 0
lhand 0 0 0
lfingers 0 0 0
lthumb 0 0 0
rclavicle 0 0 0
rhumerus -39.5419 -4.65555 -67.4191
rradius 0 0 0
rwrist 18.0953 0 0
rhand 4.5483 -10.6142 -3.51146
rfingers 0 0 0
rthumb 0 0 0
245
root 6.32139 15.9594 -25.8305 9.48953 38.4478 -2.47003
lfemur 0 0 0
ltibia 0 0 0
lfoot 0 0 0
ltoes 33.2283 -0 0
rfemur 0 0 0
rtibia 0 0 0
rfoot 3.86815 -9.39555 -1.82541
rtoes 0 0 0
lowerback 1.58268 -2.36329 -0.128768
upperback 0 0 0
thorax 0 0 0
lowerneck -10.4232 -5.82617 -1.16821
upperneck 0 0 0
head 2.5461 -3.78873 -0.0100071
lclavicle 0 0 0
lhumerus -51.9296 -35.2288 119.523
lradius 61.1894 -0 0
lwrist 19.6577 0 0
lhand 0 0 0
lfingers 0 0 0
lthumb 0 0 0
rclavicle 0 0 0
rhumerus -40.0868 -4.97998 -67.161
rradius 0 0 0
rwrist 22.6951 0 0
rhand 0.582573 -8.90746 -3.13946
rfingers 0 0 0
rthumb 0 0 0
246
root 6.43782 15.9961 -25.8162 9.46451 40.4224 -2.14026
lfemur 0 0 0
ltibia 0 0 0
lfoot 0 0 0
ltoes 37.3553 -0 0
rfemur 0 0 0
rtibia 0 0 0
rfoot 6.7467 -10.5877 -1.562
rtoes 0 0 0
lowerback 1.59057 -2.3981 -0.319345
upperback 0 0 0
thorax 0 0 0
lowerneck -10.2934 -6.23759 -1.33693
upperneck 0 0 0
head 2.56254 -4.05352 -0.00423414
lclavicle 0 0 0
lhumerus -51.7819 -34.945 119.443
lradius 61.2311 -0 0
lwrist 19.7297 0 0
lhand 0 0 0
lfingers 0 0 0
lthumb 0 0 0
rclavicle 0 0 0
rhumerus -40.6016 -5.28328 -66.915
rradius 0 0 0
rwrist 27.0272 0 0
rhand -3.13928 -7.32777 -2.68231
rfingers 0 0 0
rthumb 0 0 0
247
root 6.55236 16.0311 -25.8011 9.45437 42.2418 -1.82848
lfemur 0 0 0
ltibia 0 0 0
lfoot 0 0 0
ltoes 41.1578 -0 0
rfemur 0 0 0
rtibia 0 0 0
rfoot 9.39316 -11.6729 -1.26668
rtoes 0 0 0
lowerback 1.59793 -2.43014 -0.494942
upperback 0 0 0
thorax 0 0 0
lowerneck -10.1725 -6.61632 -1.49333
upperneck 0 0 0
head 2.57767 -4.29748 0.00101907
lclavicle 0 0 0
lhumerus -51.6468 -34.6835 119.372
lradius 61.2696 -0 0
lwrist 19.796 0 0
lhand 0 0 0
lfingers 0 0 0
lthumb 0 0 0
rclavicle 0 0 0
rhumerus -41.0772 -5.56076 -66.6857
rradius 0 0 0
rwrist 31.0185 0 0
rhand -6.55484 -5.90192 -2.17145
rfingers 0 0 0
rthumb 0 0 0
248
root 6.66414 16.0641 -25.7853 9.45669 43.8726 -1.54144
lfemur 0 0 0
ltibia 0 0 0
lfoot 0 0 0
ltoes 44.566 -0 0
rfemur 0 0 0
rtibia 0 0 0
rfoot 11.7599 -12.633 -0.959681
rtoes 0 0 0
lowerback 1.60462 -2.45885 -0.652344
upperback 0 0 0
thorax 0 0 0
lowerneck -10.0632 -6.95551 -1.6343
upperneck 0 0 0
head 2.59122 -4.51616 0.00567429
lclavicle 0 0 0
lhumerus -51.5263 -34.4489 119.308
lradius 61.3041 -0 0
lwrist 19.8554 0 0
lhand 0 0 0
lfingers 0 0 0
lthumb 0 0 0
rclavicle 0 0 0
rhumerus -41.5047 -5.80786 -66.4782
rradius 0 0 0
rwrist 34.5961 0 0
rhand -9.60378 -4.65214 -1.64226
rfingers 0 0 0
rthumb 0 0 0
249
root 6.7723 16.0947 -25.7688 9.4681 45.2815 -1.28682
lfemur 0 0 0
ltibia 0 0 0
lfoot 0 0 0
ltoes 47.5106 -0 0
rfemur 0 0 0
rtibia 0 0 0
rfoot 13.8001 -13.4517 -0.662759
rtoes 0 0 0
lowerback 1.61046 -2.48363 -0.788336
upperback 0 0 0
thorax 0 0 0
lowerneck -9.96809 -7.24833 -1.7567
upperneck 0 0 0
head 2.60291 -4.70508 0.00965553
lclavicle 0 0 0
lhumerus -51.4227 -34.2461 119.254
lradius 61.3339 -0 0
lwrist 19.9068 0 0
lhand 0 0 0
lfingers 0 0 0
lthumb 0 0 0
rclavicle 0 0 0
rhumerus -41.8749 -6.0201 -66.2974
rradius 0 0 0
rwrist 37.6869 0 0
rhand -12.2275 -3.5966 -1.13222
rfingers 0 0 0
rthumb 0 0 0
250
root 6.87598 16.1226 -25.7517 9.48442 46.4352 -1.07316
lfemur 0 0 0
ltibia 0 0 0
lfoot 0 0 0
ltoes 49.9219 -0 0
rfemur 0 0 0
rtibia 0 0 0
rfoot 15.4675 -14.1138 -0.398051
rtoes 0 0 0
lowerback 1.61529 -2.50392 -0.899703
upperback 0 0 0
thorax 0 0 0
lowerneck -9.88965 -7.48797 -1.85736
upperneck 0 0 0
head 2.61247 -4.85979 0.0128878
lclavicle 0 0 0
lhumerus -51.3383 -34.0801 119.209
lradius 61.3583 -0 0
lwrist 19.9489 0 0
lhand 0 0 0
lfingers 0 0 0
lthumb 0 0 0
rclavicle 0 0 0
rhumerus -42.1787 -6.19303 -66.1482
rradius 0 0 0
rwrist 40.218 0 0
rhand -14.3685 -2.75045 -0.678974
rfingers 0 0 0
rthumb 0 0 0
251
root 6.97431 16.1474 -25.734 9.50106 47.3004 -0.909557
lfemur 0 0 0
ltibia 0 0 0
lfoot 0 0 0
ltoes 51.7304 -0 0
rfemur 0 0 0
rtibia 0 0 0
rfoot 16.7159 -14.6052 -0.186947
rtoes 0 0 0
lowerback 1.61894 -2.51913 -0.983231
upperback 0 0 0
thorax 0 0 0
lowerneck -9.83051 -7.66762 -1.93311
upperneck 0 0 0
head 2.61965 -4.97583 0.0152954
lclavicle 0 0 0
lhumerus -51.2752 -33.9555 119.177
lradius 61.3766 -0 0
lwrist 19.9804 0 0
lhand 0 0 0
lfingers 0 0 0
lthumb 0 0 0
rclavicle 0 0 0
rhumerus -42.4069 -6.3222 -66.0357
rradius 0 0 0
rwrist 42.1163 0 0
rhand -15.9696 -2.12731 -0.318501
rfingers 0 0 0
rthumb 0 0 0
